<svg width="40" height="40" viewBox="0 0 40 40" fill="none" xmlns="http://www.w3.org/2000/svg">
<g clip-path="url(#clip0_2005_1314)">
<path d="M19.9996 31.9165C16.8167 31.9165 13.8242 30.6768 11.5734 28.426C9.32268 26.1753 8.08337 23.1828 8.08337 20C8.08337 16.8172 9.32307 13.8247 11.5734 11.5739C13.8242 9.32318 16.8167 8.0835 19.9996 8.0835C23.1824 8.0835 26.1749 9.32318 28.4257 11.5739C30.6765 13.8247 31.9158 16.8172 31.9158 20C31.9158 23.1828 30.6761 26.1753 28.4257 28.426C26.1749 30.6768 23.1824 31.9165 19.9996 31.9165Z" stroke="white" stroke-width="0.421053" stroke-miterlimit="10"/>
<path d="M3.06709 27.009C5.77872 25.8372 7.68116 23.1367 7.68116 19.9998C7.68116 16.8629 5.75677 14.1309 3.02001 12.9699C2.99368 12.9591 2.96694 12.9483 2.94101 12.9375C2.48256 12.7492 2.00216 12.6044 1.5042 12.5078C0.566147 14.8212 0.0494385 17.3501 0.0494385 19.9998C0.0494385 22.6496 0.566147 25.1788 1.5042 27.4918C1.96784 27.402 2.41712 27.2704 2.84685 27.1004C2.91986 27.0689 2.99328 27.0381 3.06709 27.009Z" stroke="white" stroke-width="0.421053" stroke-miterlimit="10"/>
<path d="M1.75022 27.0295C0.885981 24.7887 0.447876 22.4254 0.447876 19.9991C0.447876 17.5728 0.885981 15.2095 1.75022 12.9688C2.10414 13.0545 2.45246 13.1675 2.78882 13.3055C2.81316 13.3159 2.8399 13.3267 2.86663 13.3374C5.54872 14.4766 7.28199 17.0908 7.28199 19.9987C7.28199 22.9066 5.56748 25.4901 2.91371 26.6396C2.8383 26.6696 2.76448 26.7003 2.69386 26.731C2.38823 26.8515 2.07222 26.9513 1.75022 27.0291V27.0295Z" stroke="white" stroke-width="0.421053" stroke-miterlimit="10"/>
<path d="M36.9628 12.9744C34.232 14.1379 32.3124 16.8486 32.3124 19.9995C32.3124 23.1504 34.2136 25.8349 36.9236 27.0076C36.9999 27.0379 37.0753 27.069 37.1503 27.1017C37.5808 27.2717 38.0301 27.403 38.4945 27.4927C39.4326 25.1793 39.9497 22.6497 39.9497 19.9995C39.9497 17.3494 39.4326 14.8201 38.4945 12.5063C38.0041 12.6009 37.5301 12.743 37.0777 12.9269C37.0394 12.9433 37.0011 12.9588 36.9628 12.9744Z" stroke="white" stroke-width="0.421053" stroke-miterlimit="10"/>
<path d="M38.2475 27.0304C37.9251 26.9526 37.6083 26.8528 37.3027 26.7323C37.2296 26.7004 37.1534 26.6689 37.0764 26.6382C34.4243 25.4883 32.7109 22.8828 32.7109 19.9988C32.7109 17.1149 34.4394 14.4839 37.1151 13.3423C37.1534 13.3268 37.1917 13.3112 37.23 13.2949C37.56 13.1608 37.9008 13.0511 38.2475 12.9673C39.1121 15.2085 39.5502 17.5721 39.5502 19.9988C39.5502 22.4255 39.1121 24.7892 38.2475 27.0304Z" stroke="white" stroke-width="0.421053" stroke-miterlimit="10"/>
<path d="M3.02002 12.9691C3.92017 13.3341 4.89134 13.5261 5.89164 13.5261C7.93015 13.5261 9.84695 12.7321 11.2882 11.2909C12.7297 9.84929 13.5234 7.9329 13.5234 5.89442C13.5234 4.34949 13.0669 2.87479 12.2186 1.62354C7.45613 3.64247 3.64047 7.45889 1.62231 12.2221C2.03887 12.5046 2.48057 12.7436 2.94102 12.9367C2.96735 12.9475 2.99409 12.9583 3.02002 12.9691Z" stroke="white" stroke-width="0.421053" stroke-miterlimit="10"/>
<path d="M5.89169 13.1267C4.94965 13.1267 4.03473 12.9496 3.17249 12.6C3.15453 12.5925 3.13658 12.5853 3.11862 12.5777L3.09229 12.5669C2.75912 12.4273 2.43394 12.2605 2.12231 12.0698C3.09867 9.86969 4.46047 7.88827 6.17299 6.17537C7.88551 4.46246 9.86695 3.10028 12.0667 2.12354C12.7597 3.2535 13.124 4.54985 13.124 5.89367C13.124 7.82562 12.3715 9.64186 11.0057 11.008C9.63952 12.3742 7.82326 13.1263 5.89129 13.1263L5.89169 13.1267Z" stroke="white" stroke-width="0.421053" stroke-miterlimit="10"/>
<path d="M3.02041 12.9698C2.99407 12.9586 2.96774 12.9483 2.94141 12.9375C2.96774 12.9487 2.99407 12.9594 3.02041 12.9698Z" stroke="white" stroke-width="0.421053" stroke-miterlimit="10"/>
<path d="M36.9242 27.0078C36.038 26.6559 35.0844 26.4712 34.1025 26.4712C32.0636 26.4712 30.1464 27.2652 28.7048 28.7072C27.2632 30.1492 26.4688 32.0659 26.4688 34.1048C26.4688 35.0876 26.6539 36.042 27.0062 36.9285C27.0381 37.0024 27.0692 37.0766 27.0992 37.152C27.2851 37.5793 27.5109 37.9899 27.7751 38.3785C32.54 36.3604 36.358 32.5428 38.3774 27.7783C37.9888 27.5146 37.5786 27.2887 37.1512 27.1024C37.075 27.0725 36.9996 27.0406 36.9246 27.0082L36.9242 27.0078Z" stroke="white" stroke-width="0.421053" stroke-miterlimit="10"/>
<path d="M27.9257 37.8772C27.7526 37.5947 27.599 37.3002 27.4669 36.9982C27.4402 36.9308 27.4106 36.8594 27.3743 36.7752C27.0376 35.9269 26.8672 35.0284 26.8672 34.1043C26.8672 32.1719 27.6197 30.3549 28.9863 28.9887C30.3529 27.6221 32.1695 26.8696 34.1019 26.8696C35.0252 26.8696 35.9233 27.04 36.7708 27.376C36.8542 27.4119 36.928 27.4426 36.9971 27.4701C37.2991 27.6022 37.5936 27.7558 37.8761 27.929C36.8993 30.1298 35.5367 32.1121 33.8234 33.8254C32.1097 35.5387 30.1274 36.9005 27.9265 37.8772H27.9257Z" stroke="white" stroke-width="0.421053" stroke-miterlimit="10"/>
<path d="M37.1497 27.102C37.0747 27.0693 36.9993 27.0381 36.9231 27.0078C36.9981 27.0401 37.0735 27.0721 37.1497 27.102Z" stroke="white" stroke-width="0.421053" stroke-miterlimit="10"/>
<path d="M19.9993 7.68415C23.1383 7.68415 25.8399 5.77933 27.011 3.06495C27.0405 2.99073 27.0709 2.91692 27.1028 2.8435C27.272 2.41458 27.4028 1.9669 27.4922 1.50446C25.1788 0.566419 22.6495 0.0493164 19.9993 0.0493164C17.3492 0.0493164 14.8199 0.566419 12.5065 1.50446C13.1868 5.02044 16.2874 7.68415 19.9993 7.68415Z" stroke="white" stroke-width="0.421053" stroke-miterlimit="10"/>
<path d="M19.9996 7.28566C16.6519 7.28566 13.7464 4.97745 12.9688 1.75155C15.2095 0.88692 17.5732 0.449219 19.9996 0.449219C22.4259 0.449219 24.7896 0.887319 27.0304 1.75155C26.953 2.07234 26.8536 2.38715 26.7343 2.69119C26.7052 2.75862 26.6749 2.83124 26.6426 2.91264C25.4942 5.56957 22.8876 7.28566 19.9996 7.28566Z" stroke="white" stroke-width="0.421053" stroke-miterlimit="10"/>
<path d="M27.0053 36.9278C25.833 34.217 23.1329 32.3149 19.9964 32.3149C16.8598 32.3149 14.1618 34.2154 12.9891 36.925C12.9588 37.002 12.9268 37.0782 12.8937 37.154C12.7246 37.5829 12.5937 38.031 12.5039 38.4938C14.8181 39.4327 17.3482 39.9498 19.9992 39.9498C22.6501 39.9498 25.1766 39.4331 27.4892 38.4958C27.3995 38.0314 27.2682 37.5817 27.0982 37.1516C27.0659 37.0778 27.0352 37.0032 27.0053 36.9282V36.9278Z" stroke="white" stroke-width="0.421053" stroke-miterlimit="10"/>
<path d="M19.9993 39.5513C17.5721 39.5513 15.2077 39.1128 12.9661 38.2478C13.0435 37.927 13.1428 37.6118 13.2629 37.3073C13.2944 37.2347 13.3264 37.1577 13.3579 37.0787C14.5082 34.4273 17.1133 32.7148 19.9969 32.7148C22.8805 32.7148 25.4876 34.4289 26.6371 37.0819C26.6674 37.1581 26.6985 37.2327 26.7297 37.3049C26.8502 37.611 26.9499 37.9274 27.0277 38.2502C24.7873 39.114 22.4248 39.5517 19.9993 39.5517V39.5513Z" stroke="white" stroke-width="0.421053" stroke-miterlimit="10"/>
<path d="M27.0051 36.9282C27.0351 37.0032 27.0658 37.0774 27.0981 37.1517C27.0686 37.0767 27.037 37.0024 27.0051 36.9282Z" stroke="white" stroke-width="0.421053" stroke-miterlimit="10"/>
<path d="M27.0109 3.06507C25.9177 5.81257 26.4815 9.07119 28.7027 11.2912C30.1447 12.7328 32.0623 13.5264 34.1016 13.5264C35.0983 13.5264 36.0655 13.3365 36.9625 12.9742C37.0008 12.9578 37.0391 12.9423 37.0774 12.9267C37.5306 12.7352 37.9651 12.499 38.3757 12.2205C36.3568 7.45645 32.5391 3.63963 27.7746 1.62109C27.5109 2.01131 27.2862 2.42029 27.1023 2.84283C27.0728 2.91744 27.0421 2.99125 27.0105 3.06427L27.0109 3.06507Z" stroke="white" stroke-width="0.421053" stroke-miterlimit="10"/>
<path d="M34.1013 13.1268C32.1686 13.1268 30.3511 12.3743 28.9841 11.0082C26.9404 8.96569 26.3108 5.90777 27.3793 3.21692C27.414 3.13593 27.4444 3.06371 27.4711 2.99588C27.602 2.69623 27.7544 2.40336 27.9268 2.12207C30.1273 3.09842 32.1095 4.4602 33.8228 6.1735C35.5361 7.8864 36.8983 9.86863 37.8751 12.0687C37.5706 12.2554 37.2518 12.4194 36.9243 12.5579L36.9215 12.5591C36.884 12.5742 36.8465 12.5894 36.8093 12.6054C35.9503 12.9517 35.0394 13.1268 34.1013 13.1268Z" stroke="white" stroke-width="0.421053" stroke-miterlimit="10"/>
<path d="M36.9622 12.9742C37.0005 12.9587 37.0392 12.9427 37.0771 12.9268C37.0388 12.9423 37.0001 12.9579 36.9622 12.9742Z" stroke="white" stroke-width="0.421053" stroke-miterlimit="10"/>
<path d="M27.0117 3.0652C27.0432 2.99178 27.0744 2.91796 27.1035 2.84375C27.0716 2.91717 27.0412 2.99098 27.0117 3.0652Z" stroke="white" stroke-width="0.421053" stroke-miterlimit="10"/>
<path d="M12.9895 36.9254C13.3414 36.0396 13.5257 35.0868 13.5257 34.1048C13.5257 32.0659 12.7317 30.1488 11.2897 28.7072C9.84773 27.2652 7.93092 26.4712 5.89202 26.4712C4.90887 26.4712 3.95406 26.6563 3.06708 27.009C2.99406 27.0406 2.92104 27.0713 2.84683 27.1004C2.4199 27.2863 2.00972 27.5118 1.62109 27.7751C3.63925 32.5396 7.45651 36.3572 12.2206 38.3765C12.4831 37.9891 12.7086 37.5801 12.8941 37.1544C12.9244 37.0774 12.9564 37.0012 12.9895 36.9254Z" stroke="white" stroke-width="0.421053" stroke-miterlimit="10"/>
<path d="M12.069 37.8756C9.86855 36.8989 7.8867 35.5367 6.17379 33.823C4.46087 32.1097 3.09907 30.1275 2.12231 27.9266C2.40441 27.7538 2.69847 27.6002 3.00052 27.4685C3.06755 27.4418 3.13778 27.4127 3.22037 27.3772C4.06905 27.0404 4.968 26.8696 5.89249 26.8696C7.82486 26.8696 9.64192 27.6221 11.0081 28.9887C12.3747 30.3553 13.1272 32.1719 13.1272 34.1043C13.1272 35.0272 12.9568 35.9245 12.6213 36.772C12.5842 36.8574 12.5538 36.9304 12.5263 37.0006C12.395 37.301 12.2418 37.5943 12.0694 37.8752L12.069 37.8756Z" stroke="white" stroke-width="0.421053" stroke-miterlimit="10"/>
<path d="M3.06656 27.0088C2.99275 27.0383 2.91933 27.0686 2.84631 27.1002C2.92053 27.071 2.99355 27.0403 3.06656 27.0088Z" stroke="white" stroke-width="0.421053" stroke-miterlimit="10"/>
<path d="M12.9899 36.9243C12.9572 37.0001 12.9253 37.0763 12.8945 37.1533C12.9276 37.0775 12.9592 37.0013 12.9899 36.9243Z" stroke="white" stroke-width="0.421053" stroke-miterlimit="10"/>
<path d="M15.8105 9.62646L17.786 12.4765C18.8848 14.0621 21.2222 14.0825 22.349 12.5164L24.3739 9.70148L23.7554 13.1133C23.4115 15.0113 25.0498 16.6788 26.9539 16.3679L30.3761 15.8093L27.526 17.7848C25.9404 18.8836 25.92 21.221 27.4861 22.3477L30.3011 24.3727L26.8892 23.7542C24.9912 23.4103 23.3237 25.0486 23.6345 26.9526L24.1932 30.3748L22.2177 27.5247C21.1188 25.9391 18.7815 25.9188 17.6547 27.4848L15.6298 30.2998L16.2482 26.8879C16.5922 24.9899 14.9538 23.3225 13.0498 23.6333L9.62756 24.1919L12.4776 22.2165C14.0633 21.1176 14.0836 18.7803 12.5175 17.6535L9.70258 15.6286L13.1144 16.247C15.0125 16.591 16.6799 14.9527 16.3691 13.0487L15.8105 9.62646Z" stroke="white" stroke-width="0.421053" stroke-miterlimit="10"/>
<path d="M19.9924 25.9849C18.949 25.9849 17.9164 25.7072 17.0067 25.1821C14.149 23.5323 13.1663 19.8651 14.8162 17.0074C15.8823 15.1613 17.8705 14.0142 20.0052 14.0142C21.0486 14.0142 22.0808 14.2919 22.9909 14.8169C24.3751 15.6161 25.3654 16.9065 25.7792 18.4506C26.1929 19.9947 25.9807 21.6071 25.1814 22.9916C24.1153 24.8378 22.1271 25.9849 19.9924 25.9849Z" stroke="white" stroke-width="0.421053" stroke-miterlimit="10"/>
</g>
<defs>
<clipPath id="clip0_2005_1314">
<rect width="40" height="40" fill="white"/>
</clipPath>
</defs>
</svg>
